# xmcd CD database file
#
# Track frame offsets:
#	150
#	18216
#	51542
#	81209
#	100856
#	128429
#	149458
#	175744
#	208404
#	240850
#
# Disc length: 3575 seconds
#
# Revision: 0
# Processed by: cddbd v1.5.2PL0 Copyright (c) Steve Scherf et al.
# Submitted via: CDex 1.70beta2
#
DISCID=810df50a
DTITLE=Benjamin Schaefer Trio - Roots and Wings
DYEAR=2008
DGENRE=Jazz
TTITLE0=April in Aeolia
TTITLE1=the City awakens
TTITLE2=the red Room
TTITLE3=Serene
TTITLE4=Sophrosyne
TTITLE5=Reflections of Charon the Ferryman
TTITLE6=Novembertage
TTITLE7=Valentimes
TTITLE8=Nordlicht
TTITLE9=Honourfield Parade
EXTD=YEAR: 2008
EXTT0=
EXTT1=
EXTT2=
EXTT3=
EXTT4=
EXTT5=
EXTT6=
EXTT7=
EXTT8=
EXTT9=
PLAYORDER=
